<?xml version="1.0" standalone="no"?>
<!DOCTYPE svg PUBLIC "-//W3C//DTD SVG 20010904//EN"
 "http://www.w3.org/TR/2001/REC-SVG-20010904/DTD/svg10.dtd">
<svg version="1.0" xmlns="http://www.w3.org/2000/svg"
 width="500.000000pt" height="500.000000pt" viewBox="0 0 500.000000 500.000000"
 preserveAspectRatio="xMidYMid meet">
<metadata>
Created by potrace 1.11, written by Peter Selinger 2001-2013
</metadata>
<g transform="translate(0.000000,500.000000) scale(0.100000,-0.100000)"
fill="#000000" stroke="none">
<path d="M2000 4694 c-30 -9 -101 -16 -158 -17 -115 -2 -112 4 -28 -60 44 -33
76 -69 71 -77 -3 -5 1 -11 7 -13 7 -3 2 -6 -12 -6 -13 -1 -35 -13 -47 -28 -13
-14 -23 -23 -23 -19 0 4 -15 -10 -32 -31 -54 -61 -74 -79 -87 -77 -6 1 -7 0
-1 -3 18 -9 11 -33 -10 -33 -11 0 -20 5 -20 11 0 6 -7 17 -15 25 -8 9 -15 11
-15 5 0 -5 -17 -13 -37 -17 -21 -3 -58 -13 -83 -21 l-46 -14 38 -40 c28 -29
46 -40 70 -41 51 -2 73 9 85 42 8 21 18 30 34 30 12 0 30 7 40 16 16 14 19 14
39 -6 15 -15 38 -24 71 -26 40 -3 52 0 75 21 18 17 33 23 43 19 9 -4 29 -8 44
-9 15 -1 33 -7 39 -13 15 -15 65 -16 74 -1 4 8 9 7 15 -2 5 -8 25 -12 57 -10
33 1 52 -2 61 -12 9 -11 9 -17 1 -22 -8 -5 -7 -12 4 -23 13 -16 11 -17 -27
-15 -41 1 -42 1 -20 -16 24 -20 16 -45 -11 -35 -13 5 -14 9 -6 14 7 4 -8 9
-35 12 -55 4 -63 -3 -34 -31 l21 -19 -34 8 c-18 4 -40 10 -48 12 -8 3 -12 3
-7 1 4 -3 7 -9 7 -14 0 -6 -6 -7 -12 -3 -10 6 -10 4 0 -8 11 -14 8 -17 -18
-27 -18 -6 -29 -15 -25 -20 3 -6 -14 -19 -37 -30 -58 -27 -100 -56 -92 -64 4
-4 -5 -11 -20 -16 -14 -6 -26 -15 -26 -20 0 -4 -15 -12 -32 -16 -28 -6 -30 -8
-14 -14 17 -7 15 -10 -17 -30 -21 -13 -35 -26 -32 -31 3 -5 -2 -15 -10 -23 -8
-9 -12 -23 -9 -31 3 -9 2 -16 -4 -16 -8 0 -20 -23 -26 -51 0 -4 -12 -16 -26
-28 -14 -11 -21 -20 -17 -21 5 0 -5 -17 -22 -39 -17 -21 -28 -41 -25 -44 3 -3
-4 -11 -16 -17 -15 -8 -20 -18 -17 -31 3 -10 -1 -22 -8 -27 -16 -9 -48 -72
-41 -79 3 -3 -3 -22 -13 -42 -43 -82 -54 -113 -41 -121 8 -5 9 -16 4 -31 -4
-13 -8 -31 -9 -39 -1 -8 -5 -26 -9 -39 -5 -15 -4 -26 4 -31 7 -5 9 -13 5 -21
-9 -14 -11 -76 -3 -85 3 -3 4 -21 1 -40 -4 -26 -1 -34 10 -34 12 0 14 -6 7
-29 -4 -15 -4 -34 0 -41 4 -7 4 -26 0 -41 -8 -25 -6 -29 12 -29 18 0 19 -2 7
-17 -10 -12 -11 -17 -2 -20 7 -3 9 -19 7 -44 -3 -24 1 -50 10 -67 8 -15 18
-44 21 -64 3 -21 11 -38 17 -38 6 0 8 -3 5 -7 -4 -3 0 -15 10 -25 9 -10 13
-21 9 -25 -4 -5 -12 0 -17 10 -12 21 -35 22 -42 3 -6 -15 37 -206 52 -233 10
-18 16 1 26 82 9 77 14 95 26 95 6 0 9 -9 6 -20 -3 -10 0 -18 5 -17 6 1 12
-18 15 -41 3 -28 1 -42 -6 -38 -17 11 -33 -34 -34 -96 -2 -52 1 -63 22 -79 13
-10 32 -19 42 -19 17 0 18 3 8 22 -7 13 -9 40 -4 72 4 28 10 159 14 291 6 191
11 248 25 280 9 21 19 55 21 75 16 129 21 138 104 221 43 44 84 79 90 79 7 0
11 8 9 18 -2 11 3 17 15 16 9 -1 17 2 17 7 0 5 14 16 31 25 22 11 28 18 19 24
-7 5 2 10 26 14 27 6 34 10 24 16 -9 6 6 8 38 7 42 -2 49 -4 37 -14 -27 -19 2
-25 37 -7 31 16 32 16 19 0 -16 -19 -7 -36 10 -19 6 6 17 9 24 6 8 -2 34 5 60
16 26 11 49 20 53 19 15 -4 92 14 98 23 3 5 18 9 34 9 16 0 31 4 35 9 3 5 41
21 85 36 44 15 80 31 80 37 0 5 6 8 13 5 6 -2 11 -10 10 -16 -4 -13 14 -15 22
-1 3 5 15 0 26 -11 11 -11 24 -17 29 -14 4 3 11 -1 13 -7 3 -7 6 -4 7 7 1 20
1 20 15 1 8 -11 15 -16 16 -10 0 5 7 -4 14 -21 14 -29 14 -29 15 -5 0 29 20
66 20 40 0 -17 48 -42 63 -33 6 3 7 1 3 -5 -4 -7 -1 -12 8 -12 8 0 18 9 21 20
5 16 9 18 19 8 7 -7 15 -21 19 -30 3 -10 11 -18 16 -18 6 0 8 -8 5 -17 -5 -15
-3 -15 11 2 9 11 21 19 27 17 5 -1 16 3 24 9 12 9 13 9 9 -3 -8 -19 24 -20 46
-1 20 17 50 7 42 -14 -5 -13 -2 -15 16 -10 18 4 21 2 16 -14 -4 -10 -2 -19 3
-19 6 0 13 -11 16 -25 4 -14 11 -25 16 -25 5 0 7 -6 4 -13 -2 -7 7 -26 21 -41
15 -16 24 -34 21 -41 -2 -8 6 -26 20 -42 18 -21 24 -24 24 -11 0 9 -8 22 -17
27 -24 14 -7 14 18 1 10 -6 19 -18 19 -27 0 -9 3 -14 6 -10 6 6 44 -23 44 -35
0 -5 -3 -7 -7 -6 -5 2 -10 -1 -12 -7 -2 -5 -7 -20 -12 -33 -6 -16 -4 -30 5
-45 17 -26 30 -95 52 -282 19 -153 27 -184 38 -139 l7 28 20 -44 c17 -38 22
-42 30 -28 14 25 23 111 15 142 -8 34 -23 33 -44 -4 -18 -32 -32 -39 -32 -15
0 8 -4 15 -9 15 -4 0 -6 12 -3 28 l6 27 7 -25 c6 -21 7 -22 8 -4 1 11 11 31
23 44 12 13 24 31 25 39 8 43 15 150 17 277 1 77 6 146 10 152 4 7 2 29 -5 50
-7 20 -13 60 -15 87 -1 28 -2 55 -3 61 0 6 -13 24 -27 39 -20 22 -23 30 -12
36 10 6 9 11 -7 23 -11 9 -24 16 -28 16 -4 0 -7 6 -6 13 3 24 -1 47 -8 46 -22
-4 -25 3 -7 16 11 8 14 15 7 15 -7 0 -13 7 -13 15 0 8 -11 21 -23 30 -26 17
-50 61 -42 76 4 5 0 9 -8 9 -17 0 -30 27 -20 43 4 7 0 8 -12 3 -18 -6 -18 -6
-2 11 20 22 11 40 -23 44 -14 2 -23 8 -20 14 3 5 8 9 12 8 3 -1 12 5 20 14 10
13 10 15 0 9 -26 -16 -60 3 -68 36 -4 18 -9 27 -11 20 -3 -7 -13 -17 -23 -22
-18 -9 -18 -8 -4 17 24 48 15 80 -14 51 -9 -9 -12 -8 -12 6 0 13 -5 16 -19 11
-21 -6 -47 27 -36 45 6 9 -8 14 -27 11 -5 0 -8 4 -8 10 0 6 -8 9 -19 6 -10 -2
-26 0 -35 5 -11 6 -16 5 -17 -4 -1 -7 -4 -2 -8 12 -4 15 -15 26 -29 28 -12 2
-22 10 -22 19 0 8 -6 13 -12 10 -7 -2 -12 -10 -10 -16 1 -7 -2 -10 -8 -6 -5 3
-10 15 -10 25 0 26 -17 34 -29 13 -9 -16 -10 -15 -11 6 0 18 -3 21 -13 13 -9
-8 -20 -7 -40 3 -17 9 -27 10 -27 3 0 -6 -9 -8 -20 -5 -12 3 -23 -1 -29 -10
-6 -11 -10 -12 -16 -4 -5 9 -10 8 -19 -5 -11 -15 -15 -13 -37 13 -14 17 -38
33 -55 37 -16 4 -37 9 -46 12 -13 4 -15 0 -11 -17 6 -20 5 -21 -25 -5 -16 8
-32 21 -35 28 -3 8 -6 5 -6 -6 -1 -15 -4 -16 -16 -6 -12 10 -15 10 -15 0 0 -9
-7 -7 -20 5 -11 10 -20 13 -20 7 0 -6 -10 -9 -22 -7 -31 6 -41 20 -15 22 12 1
38 4 57 7 19 3 44 7 55 8 11 2 22 5 25 8 15 15 91 60 102 60 7 0 19 9 26 20 7
11 19 20 26 20 8 0 24 14 36 30 46 65 159 22 147 -55 -5 -31 -2 -36 29 -55 19
-12 37 -33 40 -46 5 -18 13 -24 33 -25 14 0 44 -2 67 -5 33 -5 48 0 80 21 21
15 51 29 66 32 l28 5 -20 26 c-27 33 -25 58 5 88 23 23 31 25 102 21 64 -3 79
-7 94 -25 18 -23 17 -65 -2 -88 -24 -29 -12 -30 426 -39 254 -5 335 -10 357
-21 15 -8 37 -14 48 -14 12 0 30 -4 40 -10 27 -15 77 6 84 35 9 37 40 47 118
43 56 -4 72 -1 90 14 12 10 25 18 30 18 25 0 79 -32 87 -52 18 -46 24 -63 23
-70 -1 -3 5 -12 14 -19 11 -9 20 -9 37 0 13 7 31 13 40 15 9 1 23 8 29 14 14
14 59 16 74 4 10 -9 84 -32 103 -32 8 0 11 64 9 241 l-3 240 -90 4 c-49 3
-102 7 -117 11 -15 3 -33 2 -40 -2 -18 -11 -149 -6 -163 6 -19 15 -98 15 -126
-1 -36 -20 -641 -14 -681 7 -36 19 -99 21 -168 6 -38 -8 -148 -11 -356 -9
-255 3 -305 6 -334 20 -38 19 -78 21 -135 6 -50 -13 -656 -12 -691 1 -30 12
-26 12 -94 -6z m461 -286 c18 -33 7 -81 -23 -97 -22 -13 -29 -13 -42 -2 -21
17 -21 89 0 112 18 20 50 14 65 -13z m-121 -158 c21 -21 13 -35 -10 -17 -15
12 -25 37 -15 37 3 0 14 -9 25 -20z m-90 -80 c0 -5 -2 -10 -4 -10 -3 0 -8 5
-11 10 -3 6 -1 10 4 10 6 0 11 -4 11 -10z m507 -82 c-3 -8 -6 -5 -6 6 -1 11 2
17 5 13 3 -3 4 -12 1 -19z m90 -10 c-3 -8 -6 -5 -6 6 -1 11 2 17 5 13 3 -3 4
-12 1 -19z m-167 -88 c0 -5 -2 -10 -4 -10 -3 0 -8 5 -11 10 -3 6 -1 10 4 10 6
0 11 -4 11 -10z m64 -65 c3 -8 1 -15 -4 -15 -6 0 -10 7 -10 15 0 8 2 15 4 15
2 0 6 -7 10 -15z m-27 -431 c-3 -3 -12 -4 -19 -1 -8 3 -5 6 6 6 11 1 17 -2 13
-5z m-510 -110 c-3 -3 -12 -4 -19 -1 -8 3 -5 6 6 6 11 1 17 -2 13 -5z m1263
-566 c0 -16 -3 -19 -11 -11 -6 6 -8 16 -5 22 11 17 16 13 16 -11z m0 -78 c0
-5 -5 -10 -11 -10 -5 0 -7 5 -4 10 3 6 8 10 11 10 2 0 4 -4 4 -10z"/>
<path d="M383 4669 c9 -6 15 -14 12 -20 -4 -5 3 -9 14 -9 18 0 38 17 30 24 -2
2 -20 6 -39 9 -27 5 -31 4 -17 -4z"/>
<path d="M1056 4504 c-9 -13 -16 -34 -16 -46 l0 -23 18 21 c9 12 25 24 35 28
22 7 19 38 -5 42 -9 1 -24 -9 -32 -22z"/>
<path d="M56 4404 c-9 -35 2 -50 40 -52 27 -2 41 3 55 19 24 28 16 36 -43 47
-43 9 -47 8 -52 -14z"/>
<path d="M1353 4413 c-22 -8 -14 -39 13 -52 22 -10 28 -9 40 6 7 10 14 21 14
24 0 5 -47 30 -53 28 -1 0 -8 -3 -14 -6z"/>
<path d="M3300 4255 c0 -16 16 -20 24 -6 3 5 -1 11 -9 15 -9 3 -15 0 -15 -9z"/>
<path d="M1704 3992 c2 -9 8 -18 14 -20 17 -5 15 25 -2 31 -9 4 -13 0 -12 -11z"/>
<path d="M4070 3880 c-12 -8 -10 -10 8 -10 13 0 20 4 17 10 -7 12 -6 12 -25 0z"/>
<path d="M3714 3842 c3 -5 0 -12 -6 -15 -7 -2 6 -7 30 -12 45 -7 63 -2 46 15
-14 14 -79 26 -70 12z"/>
<path d="M2935 2870 c-27 -4 -85 -19 -128 -34 -42 -14 -84 -26 -92 -26 -8 0
-15 -4 -15 -10 0 -5 -16 -17 -35 -26 -25 -12 -35 -23 -35 -39 0 -13 -6 -25
-12 -28 -7 -2 12 -16 43 -30 42 -19 58 -32 63 -51 4 -17 15 -28 34 -32 15 -3
36 -10 47 -15 12 -6 34 -7 50 -4 17 3 60 10 96 14 80 10 89 15 89 47 0 22 3
24 23 19 12 -4 26 -11 31 -16 6 -5 34 -9 63 -9 45 0 53 3 53 18 0 42 -89 82
-180 82 -48 0 -110 16 -110 29 0 7 80 51 93 51 3 0 27 9 54 21 l48 21 -25 13
c-27 15 -76 17 -155 5z m213 -187 c55 -31 48 -40 -15 -19 -26 8 -73 21 -103
28 -51 11 -53 12 -25 18 45 10 95 0 143 -27z"/>
<path d="M2106 2823 c-3 -3 -26 -5 -52 -5 -48 1 -151 -28 -191 -54 -22 -14
-34 -62 -12 -49 6 4 30 4 54 1 36 -6 44 -11 50 -33 5 -21 8 -24 16 -12 5 7 9
9 9 4 0 -16 -22 -35 -38 -35 -8 0 -20 -7 -27 -17 -9 -13 -14 -13 -20 -3 -6 9
-4 11 6 5 11 -7 12 -6 2 7 -7 8 -9 19 -5 23 4 5 1 5 -6 1 -7 -4 -10 -11 -7
-16 3 -5 -1 -14 -8 -22 -7 -7 -21 -25 -31 -41 -18 -27 -18 -28 5 -48 20 -17
32 -20 69 -14 25 3 58 8 73 10 20 3 27 0 24 -8 -3 -9 15 -13 67 -16 39 -1 73
-4 75 -6 2 -2 -17 -9 -43 -16 -25 -6 -46 -15 -46 -20 0 -5 -7 -6 -15 -3 -8 4
-15 2 -15 -4 0 -5 7 -13 16 -16 58 -22 279 42 259 75 -4 5 5 9 19 9 14 0 26 5
26 10 0 15 30 12 30 -2 1 -8 6 -6 14 5 7 9 20 15 28 12 8 -3 21 1 28 10 7 8
10 15 6 15 -9 0 24 62 39 75 24 20 23 52 -2 79 -13 14 -31 26 -39 26 -8 0 -12
4 -9 10 4 6 -1 7 -10 3 -10 -3 -21 0 -25 7 -4 7 -34 13 -71 15 -35 2 -84 10
-109 19 -47 18 -124 28 -134 19z m-73 -154 c5 -3 -3 -9 -17 -11 -22 -5 -24 -3
-15 14 6 11 14 16 17 11 4 -4 11 -11 15 -14z m30 14 c-7 -2 -19 -2 -25 0 -7 3
-2 5 12 5 14 0 19 -2 13 -5z m17 -127 c0 -11 -19 -15 -25 -6 -3 5 1 10 9 10 9
0 16 -2 16 -4z m110 -46 c0 -13 -11 -13 -30 0 -12 8 -11 10 8 10 12 0 22 -4
22 -10z m43 3 c-7 -2 -19 -2 -25 0 -7 3 -2 5 12 5 14 0 19 -2 13 -5z"/>
<path d="M2550 2750 c0 -5 7 -10 15 -10 8 0 15 5 15 10 0 6 -7 10 -15 10 -8 0
-15 -4 -15 -10z"/>
<path d="M2516 2731 c-4 -5 -2 -12 3 -15 5 -4 12 -2 15 3 4 5 2 12 -3 15 -5 4
-12 2 -15 -3z"/>
<path d="M1919 2688 c-6 -21 -5 -38 2 -38 5 0 9 2 9 4 0 2 3 11 6 20 3 9 1 16
-5 16 -6 0 -11 -1 -12 -2z"/>
<path d="M2880 2560 c12 -8 9 -9 -12 -4 -15 3 -31 3 -37 0 -13 -8 -2 -37 13
-34 6 1 24 -6 41 -17 35 -24 165 -29 187 -7 10 10 6 12 -19 12 -17 0 -44 7
-59 15 -29 15 -29 15 -4 15 48 0 4 19 -60 25 -49 5 -61 4 -50 -5z"/>
<path d="M3472 2406 c3 -57 5 -63 21 -55 27 15 20 102 -10 113 -12 5 -14 -5
-11 -58z"/>
<path d="M4630 2375 c0 -10 7 -15 18 -13 21 4 19 22 -2 26 -10 2 -16 -3 -16
-13z"/>
<path d="M2914 2287 c5 -20 2 -27 -13 -32 -10 -3 -21 -17 -23 -30 -5 -23 -4
-23 16 -10 20 15 60 22 41 7 -5 -4 -10 -13 -11 -19 -2 -29 -5 -33 -19 -33 -8
0 -15 -4 -15 -10 0 -5 7 -10 15 -10 7 0 43 -29 78 -65 61 -64 63 -66 44 -83
-16 -14 -43 -17 -166 -20 -187 -3 -396 -11 -441 -17 -19 -2 -66 -9 -103 -14
-38 -5 -75 -7 -83 -4 -18 7 -18 23 0 23 8 0 18 5 22 12 4 7 3 8 -4 4 -18 -11
-2 57 16 70 10 7 28 8 51 3 19 -4 38 -6 43 -3 4 3 39 -6 78 -20 67 -25 124
-31 180 -22 14 2 32 5 41 5 10 1 27 24 41 57 15 33 29 51 33 44 5 -8 10 -7 18
3 17 21 58 28 76 14 11 -10 13 -9 9 3 -3 8 -2 22 3 31 7 13 2 20 -21 29 -26
11 -37 9 -96 -19 -37 -17 -64 -34 -61 -38 8 -7 -11 -33 -25 -33 -5 0 1 17 13
37 13 20 18 33 12 30 -6 -4 -13 -2 -15 5 -7 19 -241 18 -292 -2 -37 -13 -39
-13 -56 8 -11 13 -24 20 -34 16 -9 -3 -16 -1 -16 5 0 6 -7 11 -16 11 -20 0
-124 -71 -124 -85 0 -6 -8 -18 -19 -27 -10 -8 -20 -20 -22 -24 -6 -14 -67 -54
-82 -54 -7 0 -28 -18 -45 -39 -32 -40 -34 -67 -5 -84 7 -5 11 -12 8 -17 -3 -5
3 -27 14 -50 10 -22 15 -42 11 -45 -5 -3 -2 -17 5 -32 10 -18 11 -32 4 -45 -6
-12 -6 -18 1 -18 5 0 10 -5 10 -11 0 -5 -6 -7 -12 -4 -7 4 -2 -3 11 -15 l24
-21 -22 -22 c-11 -13 -21 -30 -21 -38 0 -12 2 -12 9 0 8 12 12 11 28 -4 15
-16 15 -18 2 -13 -9 4 -22 1 -28 -5 -16 -16 -13 -27 5 -20 12 4 15 2 12 -8 -3
-8 -14 -13 -25 -11 -19 3 -20 0 -13 -33 4 -19 6 -35 4 -35 -2 0 7 -15 19 -33
28 -41 72 -143 69 -159 -1 -5 3 -8 9 -8 5 0 8 -4 5 -8 -7 -12 29 -64 38 -55 4
4 4 0 1 -9 -4 -9 -1 -19 4 -23 6 -3 9 -11 5 -16 -3 -5 -11 -6 -17 -2 -7 4 -6
0 2 -10 7 -9 10 -24 7 -33 -5 -13 -1 -15 18 -12 24 5 24 5 8 -21 -9 -14 -12
-22 -6 -18 11 6 28 -26 25 -47 -1 -4 4 -14 10 -22 7 -9 8 -14 1 -14 -6 0 -13
-13 -17 -29 -5 -22 -11 -28 -23 -25 -14 5 -13 3 1 -6 29 -19 8 -79 -27 -80 -6
0 -5 5 2 12 20 20 13 29 -19 23 -17 -3 -28 -2 -25 3 3 5 -8 9 -25 9 -22 0 -38
9 -59 34 -16 19 -29 30 -30 26 0 -5 -11 4 -24 20 -66 78 -94 171 -70 230 8 19
17 70 21 114 l6 81 -39 -17 c-100 -43 -191 -60 -212 -38 -19 18 -44 2 -48 -31
-3 -30 14 -45 28 -25 22 32 -6 -101 -47 -223 -24 -71 -45 -131 -47 -132 -1 -2
-24 -15 -49 -30 -26 -14 -78 -53 -117 -85 -38 -33 -112 -85 -164 -116 -51 -31
-102 -64 -113 -73 -11 -10 -47 -35 -80 -57 -71 -46 -368 -343 -358 -358 3 -5
1 -7 -4 -4 -6 4 -19 -3 -29 -15 -29 -32 -151 -127 -197 -154 l-42 -24 62 0
c56 0 63 2 88 31 14 17 28 29 30 27 3 -3 -4 -13 -15 -23 -11 -10 -20 -22 -20
-27 0 -4 534 -8 1187 -8 l1187 0 -104 100 c-102 97 -138 120 -210 138 -24 6
-35 14 -34 26 2 12 -3 15 -18 10 -23 -7 -79 40 -77 65 0 11 2 12 6 4 10 -27
23 -11 23 27 0 30 -4 40 -16 40 -9 0 -12 5 -8 12 12 19 12 48 0 48 -6 0 -5 4
2 9 22 14 19 19 -25 48 -24 15 -43 31 -43 36 0 4 5 5 10 2 6 -3 10 -2 10 4 0
5 -8 15 -17 21 -13 8 -14 13 -6 16 10 4 10 11 2 26 -9 16 -8 19 3 16 7 -3 14
-16 16 -30 3 -26 21 -37 72 -43 19 -2 16 1 -12 14 -41 17 -52 38 -15 26 12 -3
41 -11 64 -16 26 -7 40 -15 37 -23 -2 -6 13 -23 34 -36 29 -18 38 -30 34 -44
-3 -12 -1 -17 6 -12 6 3 14 1 18 -5 3 -6 0 -15 -7 -20 -10 -6 -6 -9 14 -9 16
0 26 -4 22 -10 -3 -5 2 -10 12 -10 25 -1 58 -27 41 -32 -7 -3 3 -8 23 -12 25
-4 38 -13 42 -27 3 -11 15 -23 26 -26 12 -3 21 -10 21 -15 0 -5 4 -7 9 -4 5 4
11 1 13 -6 5 -15 68 21 68 40 0 8 -6 12 -14 9 -10 -4 -13 -1 -9 9 6 16 23 19
23 4 0 -5 5 -10 10 -10 6 0 10 8 10 19 0 22 38 35 56 20 16 -13 21 -2 20 41
-1 29 -5 35 -23 35 -13 0 -28 6 -35 13 -9 9 -8 12 5 12 9 0 17 4 17 9 0 14
-26 32 -35 23 -5 -4 -5 1 -2 11 4 9 2 17 -4 17 -16 0 -41 29 -34 40 3 5 -1 10
-11 10 -14 0 -14 2 -3 16 10 13 10 17 -2 25 -12 8 -12 10 1 19 11 7 11 10 2
10 -9 0 -10 5 -3 18 10 19 7 64 -5 84 -5 7 -10 22 -11 33 -2 11 -6 27 -10 35
-3 8 -5 20 -4 26 1 7 -6 15 -15 18 -14 5 -14 9 -3 22 7 9 9 18 3 22 -14 10
-10 87 5 106 7 9 11 27 9 40 -3 15 0 27 8 30 8 3 14 12 14 21 0 8 9 15 20 15
11 0 20 7 20 15 0 8 5 15 10 15 6 0 10 11 10 25 0 14 9 34 20 45 11 11 17 20
14 20 -4 0 -1 7 6 15 17 20 10 26 -42 36 -24 5 -47 11 -53 13 -5 1 -29 8 -51
14 -23 7 -47 19 -54 26 -6 8 -18 12 -25 9 -8 -3 -22 2 -31 12 -18 17 -80 18
-77 0 1 -5 -5 -17 -13 -26 -8 -9 -11 -20 -7 -24 5 -5 1 -4 -8 3 -8 6 -25 13
-37 15 -12 2 -24 5 -27 8 -12 12 -130 -15 -143 -33 -18 -24 -72 -23 -124 2
-23 11 -45 20 -50 20 -9 0 -44 27 -67 53 -8 9 -21 17 -28 17 -7 0 -13 6 -13
14 0 8 -4 16 -9 18 -5 2 -12 22 -16 46 -6 35 -4 42 9 42 17 0 47 29 45 44 0 5
5 13 13 17 10 7 10 9 1 9 -7 0 -13 7 -13 15 0 8 -9 20 -20 27 -11 7 -20 17
-20 23 0 6 -15 26 -33 45 -21 21 -36 49 -40 71 l-5 36 33 -17 c18 -9 41 -24
50 -34 9 -9 20 -16 25 -16 12 0 23 38 14 52 -5 8 -2 9 9 5 9 -3 19 -2 22 3 4
6 13 6 23 1 46 -24 103 -43 130 -45 17 -1 34 -4 37 -8 4 -4 13 -4 21 -1 8 3
14 1 14 -4 0 -13 135 -10 152 4 7 6 62 13 122 17 117 7 223 39 298 91 43 29
56 31 65 10 8 -23 60 -48 69 -33 5 7 3 8 -6 3 -9 -5 -11 -4 -6 3 4 7 14 12 22
12 8 0 14 5 14 11 0 6 14 22 30 36 18 14 30 34 30 48 0 13 5 27 10 30 6 3 10
1 10 -6 0 -7 3 -10 6 -6 25 25 -172 242 -265 291 l-54 29 7 -26z m-46 -392 c2
-17 -4 -39 -11 -49 -14 -19 -16 -19 -39 -4 -23 15 -25 15 -37 -3 -8 -14 -18
-18 -32 -14 -11 4 -26 2 -33 -4 -7 -6 -35 -11 -62 -11 -65 -1 -113 -1 -148 -1
-16 0 -34 8 -41 18 -11 15 -13 15 -24 -5 -17 -31 -30 -27 -47 14 -19 45 -11
54 28 31 29 -17 30 -16 35 3 6 22 33 26 52 8 10 -11 14 -10 22 5 11 18 73 24
84 8 3 -6 17 -4 33 5 32 17 68 18 77 3 5 -7 13 -4 26 7 15 14 21 15 34 4 13
-11 19 -10 33 4 24 24 47 16 50 -19z m28 -21 c-4 -9 -9 -15 -11 -12 -3 3 -3
13 1 22 4 9 9 15 11 12 3 -3 3 -13 -1 -22z m-849 -330 c-3 -3 -12 -4 -19 -1
-8 3 -5 6 6 6 11 1 17 -2 13 -5z m150 -690 c-3 -3 -12 -4 -19 -1 -8 3 -5 6 6
6 11 1 17 -2 13 -5z m-43 -39 c-4 -8 -7 -15 -9 -15 -2 0 -5 7 -9 15 -3 9 0 15
9 15 9 0 12 -6 9 -15z m23 -7 c-3 -8 -6 -5 -6 6 -1 11 2 17 5 13 3 -3 4 -12 1
-19z m113 -40 c0 -12 -38 -10 -45 2 -4 6 5 9 19 8 15 -1 26 -6 26 -10z m5 -98
c3 -5 -1 -10 -9 -10 -9 0 -16 5 -16 10 0 6 4 10 9 10 6 0 13 -4 16 -10z m162
-36 c-3 -3 -12 -4 -19 -1 -8 3 -5 6 6 6 11 1 17 -2 13 -5z m-107 -18 c0 -11
-19 -15 -25 -6 -3 5 1 10 9 10 9 0 16 -2 16 -4z m650 -186 c0 -5 -2 -10 -4
-10 -3 0 -8 5 -11 10 -3 6 -1 10 4 10 6 0 11 -4 11 -10z m-2012 -60 c-7 -10
-14 -17 -17 -15 -4 4 18 35 25 35 2 0 -1 -9 -8 -20z m-18 -34 c0 -2 -7 -9 -15
-16 -13 -11 -14 -10 -9 4 5 14 24 23 24 12z m1526 -87 c73 -43 56 -45 -21 -3
-39 23 -65 44 -52 44 3 0 36 -18 73 -41z m-1776 -12 c0 -2 -10 -12 -22 -23
l-23 -19 19 23 c18 21 26 27 26 19z m1894 -46 c2 -3 -6 -6 -18 -6 -13 0 -23 5
-23 11 0 11 34 7 41 -5z m-1970 -70 c-10 -17 -22 -27 -28 -24 -6 4 -6 8 2 11
7 2 12 10 12 17 0 11 10 20 28 24 2 1 -5 -12 -14 -28z m-64 -4 c0 -2 -10 -12
-22 -23 l-23 -19 19 23 c18 21 26 27 26 19z"/>
<path d="M1140 2195 c0 -8 2 -15 4 -15 2 0 11 -3 20 -6 12 -4 16 0 16 15 0 14
-6 21 -20 21 -11 0 -20 -7 -20 -15z"/>
<path d="M3990 2116 c0 -9 5 -16 10 -16 6 0 10 4 10 9 0 6 -4 13 -10 16 -5 3
-10 -1 -10 -9z"/>
<path d="M3435 2030 c-9 -15 -1 -23 21 -18 15 3 16 4 1 16 -11 9 -17 10 -22 2z"/>
<path d="M325 1971 c-3 -5 -1 -12 5 -16 12 -7 30 2 30 16 0 12 -27 12 -35 0z"/>
<path d="M1705 1944 c-18 -19 -16 -33 8 -48 23 -15 40 4 31 38 -7 30 -16 32
-39 10z"/>
<path d="M2474 1696 c11 -9 16 -16 12 -16 -5 0 -3 -7 4 -15 7 -8 9 -15 5 -15
-5 0 -1 -8 8 -18 14 -16 29 -18 90 -15 39 3 76 9 82 14 5 5 17 9 26 9 9 0 22
6 28 14 10 11 8 16 -8 21 -11 3 -18 12 -15 18 3 9 -11 12 -53 9 -32 -2 -65 -3
-73 -2 -16 0 -48 -1 -65 -2 -5 -1 -21 2 -35 6 -24 7 -24 6 -6 -8z"/>
<path d="M1813 1571 c-9 -14 -9 -22 0 -35 15 -20 32 -9 41 27 5 22 3 27 -11
27 -10 0 -24 -9 -30 -19z"/>
<path d="M3355 1530 c4 -36 14 -92 22 -125 19 -76 12 -208 -16 -292 -23 -68
-41 -142 -47 -190 -3 -18 -9 -45 -14 -59 -6 -14 -8 -29 -5 -34 3 -5 1 -11 -4
-14 -4 -3 -12 -33 -15 -68 -4 -34 -14 -74 -21 -88 -8 -15 -11 -37 -8 -48 3
-14 1 -22 -8 -23 -8 -1 -25 -3 -38 -4 -30 -3 -43 -24 -26 -42 8 -7 12 -20 9
-28 -4 -9 0 -15 10 -15 22 0 20 -28 -4 -85 -11 -26 -18 -51 -14 -56 3 -5 0 -9
-5 -9 -6 0 -11 -7 -11 -15 0 -28 -31 -79 -80 -131 -39 -41 -120 -176 -120
-199 0 -3 459 -5 1020 -5 l1020 0 0 395 c0 309 -3 395 -12 395 -7 0 -24 9 -38
20 -29 23 -48 26 -31 6 9 -11 8 -15 -4 -20 -20 -7 -121 54 -105 64 14 8 3 13
-60 25 -39 8 -101 37 -141 67 -26 20 -103 45 -224 75 -52 13 -167 46 -258 73
-17 5 -25 5 -22 -1 4 -5 -1 -9 -9 -9 -8 0 -17 4 -20 9 -18 29 -440 211 -455
195 -2 -2 9 -18 25 -36 23 -24 25 -29 9 -23 -11 4 -31 10 -45 14 -25 6 -34 20
-32 54 0 9 -3 15 -7 13 -4 -3 -12 8 -18 25 -7 17 -7 29 -2 29 6 0 -3 19 -19
43 -27 37 -49 60 -156 156 l-28 26 7 -65z m337 -332 c8 -13 19 -34 23 -48 8
-24 7 -24 -16 -8 -17 11 -24 25 -24 47 0 17 1 31 1 31 1 0 8 -10 16 -22z m33
-117 c-3 -5 2 -17 11 -25 8 -9 11 -16 6 -16 -15 0 -34 28 -27 40 3 5 8 10 11
10 3 0 3 -4 -1 -9z m-125 -31 c0 -5 -2 -10 -4 -10 -3 0 -8 5 -11 10 -3 6 -1
10 4 10 6 0 11 -4 11 -10z m585 -10 c27 -30 14 -33 -20 -5 -21 17 -25 24 -14
25 9 0 24 -9 34 -20z m-585 -30 c0 -5 -4 -10 -10 -10 -5 0 -10 5 -10 10 0 6 5
10 10 10 6 0 10 -4 10 -10z m-1 -51 c-11 -7 -12 -11 -1 -17 14 -10 7 -38 -11
-45 -16 -6 -21 64 -5 74 17 11 33 -2 17 -12z m821 -100 c21 -17 18 -17 -16 3
-61 35 -99 64 -49 38 22 -12 51 -30 65 -41z m-1178 -406 c-5 -10 -13 -40 -17
-68 -6 -39 -9 -46 -16 -30 -13 33 -10 65 9 90 20 28 37 33 24 8z m172 -115
c-16 -18 -37 -38 -46 -46 -10 -7 -18 -20 -18 -29 0 -9 -3 -13 -7 -10 -3 4 -18
0 -32 -10 -25 -16 -26 -16 -11 3 8 10 28 30 45 44 16 14 41 37 55 52 14 15 29
28 34 28 6 0 -3 -14 -20 -32z m403 -73 c0 -8 -4 -12 -9 -9 -4 3 -8 9 -8 15 0
5 4 9 8 9 5 0 9 -7 9 -15z"/>
<path d="M1400 1486 c0 -11 9 -16 26 -16 31 0 28 23 -4 28 -15 2 -22 -2 -22
-12z"/>
<path d="M1075 1331 c3 -5 1 -12 -5 -16 -6 -4 -8 -11 -4 -16 3 -5 10 -7 15 -4
13 8 11 45 -2 45 -5 0 -8 -4 -4 -9z"/>
<path d="M3000 1325 c-7 -8 -8 -15 -2 -15 5 0 15 7 22 15 7 8 8 15 2 15 -5 0
-15 -7 -22 -15z"/>
<path d="M53 1224 c-8 -4 -1 -20 19 -50 30 -41 33 -43 50 -27 23 21 23 38 -2
63 -19 19 -42 24 -67 14z"/>
<path d="M4847 850 c13 -13 56 -23 49 -12 -3 5 -17 12 -32 15 -14 2 -22 1 -17
-3z"/>
<path d="M0 683 c0 -74 3 -93 18 -106 10 -10 26 -17 35 -17 9 0 19 -5 23 -11
4 -7 12 5 20 27 18 51 19 46 -21 87 -19 20 -35 45 -35 55 0 10 -9 27 -20 37
-20 18 -20 17 -20 -72z"/>
<path d="M1060 686 c0 -13 7 -29 15 -36 12 -10 17 -7 27 15 10 22 9 28 -3 36
-24 15 -39 10 -39 -15z"/>
<path d="M210 671 c0 -20 32 -37 49 -27 5 3 7 15 4 26 -7 27 -53 28 -53 1z"/>
<path d="M3090 490 c-9 -6 -10 -10 -3 -10 6 0 15 5 18 10 8 12 4 12 -15 0z"/>
<path d="M190 390 c0 -5 7 -7 15 -4 8 4 15 8 15 10 0 2 -7 4 -15 4 -8 0 -15
-4 -15 -10z"/>
<path d="M2956 365 c4 -8 8 -15 10 -15 2 0 4 7 4 15 0 8 -4 15 -10 15 -5 0 -7
-7 -4 -15z"/>
<path d="M0 24 c0 -28 34 -34 44 -8 8 22 9 21 -19 26 -21 4 -25 1 -25 -18z"/>
<path d="M50 10 c0 -5 5 -10 11 -10 5 0 7 5 4 10 -3 6 -8 10 -11 10 -2 0 -4
-4 -4 -10z"/>
</g>
</svg>
